<?xml version="1.0" encoding="UTF-8"?>
<svg id="Camada_1" data-name="Camada 1" xmlns="http://www.w3.org/2000/svg" viewBox="0 0 504 183.5">
  <defs>
    <style>
      .cls-1 {
        fill: #0d0d0d;
      }
    </style>
  </defs>
  <g>
    <circle class="cls-1" cx="135.2" cy="125.87" r="12.32"/>
    <g>
      <path class="cls-1" d="M83.54,124.76c-24.63,0-44.66-20.03-44.66-44.66s20.03-44.66,44.66-44.66,44.66,20.03,44.66,44.66-20.03,44.66-44.66,44.66ZM83.54,43.35c-20.27,0-36.76,16.49-36.76,36.76s16.49,36.76,36.76,36.76,36.76-16.49,36.76-36.76-16.49-36.76-36.76-36.76Z"/>
      <path d="M83.54,131.64c-28.42,0-51.54-23.12-51.54-51.54s23.12-51.54,51.54-51.54,51.54,23.12,51.54,51.54-23.12,51.54-51.54,51.54ZM83.54,50.22c-16.48,0-29.88,13.4-29.88,29.88s13.4,29.88,29.88,29.88,29.88-13.4,29.88-29.88-13.4-29.88-29.88-29.88Z"/>
    </g>
  </g>
  <g>
    <path class="cls-1" d="M157.57,76.61c0-7.21,1.16-13.77,3.47-19.69,2.31-5.92,5.56-10.96,9.74-15.15,4.18-4.18,9.23-7.43,15.15-9.74,5.92-2.31,12.48-3.47,19.69-3.47s13.77,1.16,19.69,3.47c5.92,2.32,10.97,5.56,15.15,9.74,4.18,4.18,7.43,9.23,9.74,15.15,2.31,5.92,3.47,12.48,3.47,19.69s-1.16,13.77-3.47,19.69c-2.32,5.92-5.56,10.97-9.74,15.15s-9.23,7.43-15.15,9.74c-5.92,2.31-12.48,3.47-19.69,3.47s-13.77-1.16-19.69-3.47c-5.92-2.31-10.97-5.56-15.15-9.74-4.18-4.18-7.43-9.23-9.74-15.15-2.32-5.92-3.47-12.48-3.47-19.69ZM179.6,76.61c0,4.18.58,8.03,1.74,11.54,1.16,3.52,2.85,6.54,5.07,9.08,2.22,2.54,4.96,4.52,8.21,5.94,3.25,1.42,6.92,2.14,11.01,2.14s7.87-.69,11.08-2.07c3.2-1.38,5.92-3.34,8.14-5.87,2.22-2.54,3.91-5.56,5.07-9.08,1.16-3.51,1.74-7.41,1.74-11.68s-.58-8.16-1.74-11.68c-1.16-3.51-2.85-6.54-5.07-9.07-2.23-2.54-4.94-4.49-8.14-5.87-3.2-1.38-6.9-2.07-11.08-2.07s-7.76.71-11.01,2.14c-3.25,1.42-5.99,3.4-8.21,5.94-2.23,2.54-3.92,5.56-5.07,9.08-1.16,3.52-1.74,7.36-1.74,11.55Z"/>
    <path class="cls-1" d="M283.7,56.59v7.47c.62-1.07,1.42-2.14,2.4-3.2.98-1.07,2.22-2.02,3.74-2.87,1.51-.84,3.34-1.51,5.47-2,2.14-.49,4.67-.73,7.61-.73,3.91,0,7.52.71,10.81,2.14l-9.34,21.22c-2.4-2.49-5.74-3.74-10.01-3.74-3.12,0-5.67.96-7.68,2.87-2,1.91-3,4.69-3,8.34v37.24h-21.35V56.59h21.35Z"/>
    <path class="cls-1" d="M341.76,64.07c.62-1.07,1.42-2.14,2.4-3.2.98-1.07,2.22-2.02,3.74-2.87,1.51-.84,3.34-1.51,5.47-2,2.14-.49,4.67-.73,7.61-.73,4.09,0,7.83.89,11.21,2.67,3.38,1.78,6.27,4.27,8.68,7.47,2.4,3.2,4.27,7.05,5.61,11.54,1.33,4.49,2,9.5,2,15.01,0,21.8-9.17,32.7-27.49,32.7-9.43,0-15.84-2.94-19.22-8.81v7.47h-21.35V28.57h21.35v35.5ZM354.3,106.64c4.09,0,7.25-1.29,9.48-3.87,2.22-2.58,3.34-6.18,3.34-10.81,0-5.69-1.13-10.01-3.4-12.95-2.27-2.94-5.41-4.41-9.41-4.41s-7.32,1.16-9.41,3.47c-2.09,2.32-3.14,6.05-3.14,11.21v1.33c0,5.61,1,9.68,3,12.21,2,2.54,5.18,3.8,9.54,3.8Z"/>
    <path class="cls-1" d="M450.66,56.86v12.01l-29.76,37.1h31.1v17.35h-62.86v-12.01l30.03-37.37h-29.36v-17.35h60.99l-.13.27Z"/>
  </g>
</svg>